<svg xmlns="http://www.w3.org/2000/svg" viewBox="0 0 1536 1024" width="1536" height="1024">
<defs>
  <radialGradient id="bg" cx="50%" cy="45%" r="75%"><stop offset="0" stop-color="#12392a"/><stop offset=".65" stop-color="#09271d"/><stop offset="1" stop-color="#041811"/></radialGradient>
  <radialGradient id="felt" cx="50%" cy="45%" r="70%"><stop offset="0" stop-color="#174d36"/><stop offset=".62" stop-color="#0e3b29"/><stop offset="1" stop-color="#09291f"/></radialGradient>
  <linearGradient id="wood" x1="0" y1="0" x2="0" y2="1"><stop offset="0" stop-color="#7a5237"/><stop offset=".22" stop-color="#4d2f21"/><stop offset=".52" stop-color="#69442d"/><stop offset=".8" stop-color="#3b2419"/><stop offset="1" stop-color="#5b3926"/></linearGradient>
  <linearGradient id="woodHi" x1="0" y1="0" x2="1" y2="0"><stop stop-color="#9a6b47" stop-opacity=".35"/><stop offset=".5" stop-color="#d0a06b" stop-opacity=".08"/><stop offset="1" stop-color="#7f5336" stop-opacity=".35"/></linearGradient>
  <linearGradient id="gold" x1="0" y1="0" x2="1" y2="1"><stop stop-color="#f0dfac"/><stop offset=".45" stop-color="#bda56c"/><stop offset="1" stop-color="#765d32"/></linearGradient>
  <linearGradient id="panel" x1="0" y1="0" x2="0" y2="1"><stop stop-color="#173d2c"/><stop offset="1" stop-color="#09271d"/></linearGradient>
  <filter id="shadow" x="-30%" y="-30%" width="160%" height="160%"><feDropShadow dx="0" dy="13" stdDeviation="16" flood-color="#000" flood-opacity=".5"/></filter>
  <filter id="soft" x="-20%" y="-20%" width="140%" height="140%"><feGaussianBlur stdDeviation="7"/></filter>
  <pattern id="grain" width="90" height="22" patternUnits="userSpaceOnUse"><path d="M0 8 C20 2 35 15 54 8 S75 2 90 8" fill="none" stroke="#b17a50" stroke-opacity=".22" stroke-width="2"/><path d="M0 16 C18 11 29 20 48 15 S72 10 90 17" fill="none" stroke="#2a160e" stroke-opacity=".3" stroke-width="3"/></pattern>
  <pattern id="feltTexture" width="34" height="34" patternUnits="userSpaceOnUse"><circle cx="5" cy="8" r=".8" fill="#8db19a" opacity=".10"/><circle cx="22" cy="24" r=".7" fill="#071b13" opacity=".18"/><path d="M2 30l9-4M20 8l7-3" stroke="#9ab19b" stroke-opacity=".05"/></pattern>
</defs>
<rect width="1536" height="1024" fill="url(#bg)"/><ellipse cx="768" cy="500" rx="710" ry="425" fill="#000" opacity=".28" filter="url(#soft)"/>
<ellipse cx="768" cy="500" rx="680" ry="370" fill="#24150e" opacity=".75" filter="url(#shadow)"/><ellipse cx="768" cy="490" rx="675" ry="365" fill="url(#wood)" stroke="#a77a4e" stroke-width="4"/><ellipse cx="768" cy="490" rx="655" ry="345" fill="url(#woodHi)" stroke="#2b1a12" stroke-width="7"/><ellipse cx="768" cy="490" rx="638" ry="328" fill="url(#wood)" stroke="#8e633f" stroke-width="3"/><ellipse cx="768" cy="490" rx="625" ry="315" fill="url(#felt)" stroke="url(#gold)" stroke-width="7"/><ellipse cx="768" cy="490" rx="606" ry="297" fill="none" stroke="#061d15" stroke-width="3" opacity=".8"/><ellipse cx="768" cy="490" rx="580" ry="275" fill="none" stroke="#78906d" stroke-opacity=".16" stroke-width="2"/><ellipse cx="768" cy="490" rx="653" ry="343" fill="url(#grain)" opacity=".65"/><ellipse cx="768" cy="490" rx="622" ry="312" fill="url(#feltTexture)" opacity=".8"/>
<g fill="#d8c28c" text-anchor="middle"><text x="768" y="315" font-family="Georgia,serif" font-size="58">♠</text><text x="768" y="365" font-family="Georgia,serif" font-size="30" letter-spacing="5">СМОЛЕНСКИЙ ПОКЕР</text><path d="M650 385H720 M816 385H886" stroke="#b99d62" stroke-width="1"/><path d="M760 380l8 5-8 5-8-5z" fill="#b99d62"/><circle cx="768" cy="385" r="3" fill="#b99d62"/></g>
<g stroke="url(#gold)" stroke-width="3" fill="#143a2a" filter="url(#shadow)"><rect x="495" y="415" width="92" height="132" rx="8"/><rect x="608" y="415" width="92" height="132" rx="8"/><rect x="721" y="415" width="92" height="132" rx="8"/><rect x="834" y="415" width="92" height="132" rx="8"/><rect x="947" y="415" width="92" height="132" rx="8"/></g>
<g fill="none" stroke="#718b6d" stroke-opacity=".35" stroke-width="2"><path d="M541 445c-24 27-17 52 0 72 17-20 24-45 0-72z"/><path d="M654 445c-24 27-17 52 0 72 17-20 24-45 0-72z"/><path d="M767 445c-24 27-17 52 0 72 17-20 24-45 0-72z"/><path d="M880 445c-24 27-17 52 0 72 17-20 24-45 0-72z"/><path d="M993 445c-24 27-17 52 0 72 17-20 24-45 0-72z"/></g>
<g fill="#d8c28c" text-anchor="middle" font-family="Georgia,serif"><text x="768" y="598" font-size="22" letter-spacing="2">БАНК</text><text x="768" y="635" font-size="25">0  ◉</text></g>
<g filter="url(#shadow)"><circle cx="768" cy="105" r="70" fill="#183126" stroke="url(#gold)" stroke-width="4"/><circle cx="768" cy="105" r="62" fill="#d7d0b8"/><circle cx="1305" cy="260" r="70" fill="#183126" stroke="url(#gold)" stroke-width="4"/><circle cx="1305" cy="260" r="62" fill="#d7d0b8"/><circle cx="1285" cy="735" r="70" fill="#183126" stroke="url(#gold)" stroke-width="4"/><circle cx="1285" cy="735" r="62" fill="#d7d0b8"/><circle cx="768" cy="850" r="70" fill="#183126" stroke="url(#gold)" stroke-width="4"/><circle cx="768" cy="850" r="62" fill="#d7d0b8"/><circle cx="251" cy="735" r="70" fill="#183126" stroke="url(#gold)" stroke-width="4"/><circle cx="251" cy="735" r="62" fill="#d7d0b8"/><circle cx="231" cy="260" r="70" fill="#183126" stroke="url(#gold)" stroke-width="4"/><circle cx="231" cy="260" r="62" fill="#d7d0b8"/></g>
<g fill="#75694e" opacity=".9"><path d="M730 130v-45h12V65h12v20h12v45h12V75h12v55h10v-8h-70z"/><path d="M1270 285v-40l22-16 22 16v40z M1300 225l8-34 8 34z"/><path d="M1250 755l18-65h12l12 45 10-50h10l15 70z"/><path d="M740 880h56v-34h-10v-20h-10v-12h-16v12h-10v20h-10z"/><path d="M210 770h80v-22l-12-10-10-20-10 20-14-20-10 20-24 12z"/><path d="M195 285l20-65 18 65 20-54 18 54z"/></g>
<g fill="#1b3829" stroke="url(#gold)" stroke-width="2" font-family="Georgia,serif" font-size="17" text-anchor="middle"><circle cx="768" cy="38" r="18"/><text x="768" y="44" fill="#e8d9a8" stroke="none">1</text><circle cx="1350" cy="202" r="18"/><text x="1350" y="208" fill="#e8d9a8" stroke="none">2</text><circle cx="1330" cy="677" r="18"/><text x="1330" y="683" fill="#e8d9a8" stroke="none">3</text><circle cx="768" cy="782" r="18"/><text x="768" y="788" fill="#e8d9a8" stroke="none">4</text><circle cx="206" cy="677" r="18"/><text x="206" y="683" fill="#e8d9a8" stroke="none">5</text><circle cx="186" cy="202" r="18"/><text x="186" y="208" fill="#e8d9a8" stroke="none">6</text></g>
<g fill="#173c2b" stroke="url(#gold)" stroke-width="2"><g transform="rotate(10 845 125)"><rect x="820" y="75" width="62" height="94" rx="5"/><path d="M851 99c-15 18-10 33 0 44 10-11 15-26 0-44z" fill="none" stroke="#718b6d"/></g><g transform="rotate(15 900 135)"><rect x="875" y="83" width="62" height="94" rx="5"/><path d="M906 107c-15 18-10 33 0 44 10-11 15-26 0-44z" fill="none" stroke="#718b6d"/></g><g transform="rotate(-8 1175 275)"><rect x="1145" y="225" width="62" height="94" rx="5"/><path d="M1176 249c-15 18-10 33 0 44 10-11 15-26 0-44z" fill="none" stroke="#718b6d"/></g><g transform="rotate(15 1230 285)"><rect x="1200" y="230" width="62" height="94" rx="5"/><path d="M1231 254c-15 18-10 33 0 44 10-11 15-26 0-44z" fill="none" stroke="#718b6d"/></g><g transform="rotate(-12 1170 755)"><rect x="1140" y="705" width="62" height="94" rx="5"/><path d="M1171 729c-15 18-10 33 0 44 10-11 15-26 0-44z" fill="none" stroke="#718b6d"/></g><g transform="rotate(-20 1225 750)"><rect x="1195" y="700" width="62" height="94" rx="5"/><path d="M1226 724c-15 18-10 33 0 44 10-11 15-26 0-44z" fill="none" stroke="#718b6d"/></g><g transform="rotate(8 845 805)"><rect x="815" y="755" width="62" height="94" rx="5"/><path d="M846 779c-15 18-10 33 0 44 10-11 15-26 0-44z" fill="none" stroke="#718b6d"/></g><g transform="rotate(14 900 800)"><rect x="870" y="750" width="62" height="94" rx="5"/><path d="M901 774c-15 18-10 33 0 44 10-11 15-26 0-44z" fill="none" stroke="#718b6d"/></g><g transform="rotate(10 330 755)"><rect x="300" y="705" width="62" height="94" rx="5"/><path d="M331 729c-15 18-10 33 0 44 10-11 15-26 0-44z" fill="none" stroke="#718b6d"/></g><g transform="rotate(16 385 745)"><rect x="355" y="695" width="62" height="94" rx="5"/><path d="M386 719c-15 18-10 33 0 44 10-11 15-26 0-44z" fill="none" stroke="#718b6d"/></g><g transform="rotate(-12 300 275)"><rect x="270" y="225" width="62" height="94" rx="5"/><path d="M301 249c-15 18-10 33 0 44 10-11 15-26 0-44z" fill="none" stroke="#718b6d"/></g><g transform="rotate(-16 355 285)"><rect x="325" y="235" width="62" height="94" rx="5"/><path d="M356 259c-15 18-10 33 0 44 10-11 15-26 0-44z" fill="none" stroke="#718b6d"/></g></g>
<g fill="url(#panel)" stroke="#8f7643" stroke-width="2"><rect x="690" y="157" width="156" height="75" rx="16"/><rect x="1227" y="307" width="156" height="75" rx="16"/><rect x="1207" y="782" width="156" height="75" rx="16"/><rect x="690" y="902" width="156" height="75" rx="16"/><rect x="173" y="782" width="156" height="75" rx="16"/><rect x="153" y="307" width="156" height="75" rx="16"/></g>
<g fill="#e6d8a9" font-family="Georgia,serif" text-anchor="middle"><g font-size="18"><text x="768" y="186">ИГРОК 1</text><text x="1305" y="336">ИГРОК 2</text><text x="1285" y="811">ИГРОК 3</text><text x="768" y="931">ИГРОК 4</text><text x="251" y="811">ИГРОК 5</text><text x="231" y="336">ИГРОК 6</text></g><g font-size="17"><text x="768" y="214">1 000  ◉</text><text x="1305" y="364">1 000  ◉</text><text x="1285" y="839">1 000  ◉</text><text x="768" y="959">1 000  ◉</text><text x="251" y="839">1 000  ◉</text><text x="231" y="364">1 000  ◉</text></g></g>
<g fill="url(#panel)" stroke="#8f7643" stroke-width="2" filter="url(#shadow)"><rect x="30" y="914" width="84" height="70" rx="20"/><rect x="1422" y="914" width="84" height="70" rx="20"/><rect x="535" y="914" width="466" height="70" rx="35"/></g><g stroke="#d4bf89" stroke-width="5" stroke-linecap="round"><path d="M55 937h35M55 952h35M55 967h35"/></g><g fill="#d4bf89"><path d="M1464 949l20-20 20 20-20 20z"/><circle cx="1484" cy="949" r="7" fill="#173a2a"/></g><g fill="#d9c28a" font-family="Georgia,serif" text-anchor="middle"><text x="768" y="958" font-size="25" letter-spacing="3">◆  СМОЛЕНСКИЙ ПОКЕР  ◆</text></g>
</svg>